<?xml version="1.0" encoding="UTF-8" standalone="no"?>
<svg
   width="90"
   height="90"
   version="1.2"
   id="svg3817"
   sodipodi:docname="sidoarjo.svg"
   inkscape:version="1.2.1 (9c6d41e410, 2022-07-14)"
   xmlns:inkscape="http://www.inkscape.org/namespaces/inkscape"
   xmlns:sodipodi="http://sodipodi.sourceforge.net/DTD/sodipodi-0.dtd"
   xmlns="http://www.w3.org/2000/svg"
   xmlns:svg="http://www.w3.org/2000/svg"
   xmlns:rdf="http://www.w3.org/1999/02/22-rdf-syntax-ns#"
   xmlns:cc="http://creativecommons.org/ns#"
   xmlns:dc="http://purl.org/dc/elements/1.1/">
  <defs
     id="defs3821">
    <inkscape:path-effect
       effect="mirror_symmetry"
       start_point="42.030332,10"
       end_point="42.030332,28.278728"
       center_point="42.030332,19.139364"
       id="path-effect1543"
       is_visible="true"
       lpeversion="1"
       mode="free"
       discard_orig_path="false"
       fuse_paths="true"
       oposite_fuse="false"
       split_items="false" />
    <inkscape:path-effect
       effect="mirror_symmetry"
       start_point="50,9.6"
       end_point="42.93,28.278728"
       center_point="42.030332,19.139364"
       id="path-effect1539"
       is_visible="true"
       lpeversion="1"
       mode="free"
       discard_orig_path="false"
       fuse_paths="false"
       oposite_fuse="false"
       split_items="false" />
    <inkscape:path-effect
       effect="mirror_symmetry"
       start_point="16.597732,19.139364"
       end_point="42.030332,28.278728"
       center_point="42.030332,19.139364"
       id="path-effect1537"
       is_visible="true"
       lpeversion="1"
       mode="free"
       discard_orig_path="false"
       fuse_paths="false"
       oposite_fuse="false"
       split_items="false" />
    <inkscape:path-effect
       effect="mirror_symmetry"
       start_point="42.030332,10"
       end_point="42.030332,28.278728"
       center_point="42.030332,19.139364"
       id="path-effect1535"
       is_visible="true"
       lpeversion="1"
       mode="free"
       discard_orig_path="false"
       fuse_paths="true"
       oposite_fuse="false"
       split_items="false" />
    <inkscape:path-effect
       effect="mirror_symmetry"
       start_point="42.030332,10"
       end_point="42.030332,28.278728"
       center_point="42.030332,19.139364"
       id="path-effect1529"
       is_visible="true"
       lpeversion="1"
       mode="free"
       discard_orig_path="false"
       fuse_paths="true"
       oposite_fuse="false"
       split_items="false" />
    <inkscape:path-effect
       effect="copy_rotate"
       starting_point="0,0"
       origin="16.597732,19.139364"
       id="path-effect1523"
       is_visible="true"
       lpeversion="1"
       method="normal"
       num_copies="6"
       starting_angle="0"
       rotation_angle="60"
       gap="-0.01"
       copies_to_360="true"
       mirror_copies="false"
       split_items="false" />
    <inkscape:path-effect
       effect="mirror_symmetry"
       start_point="20,10"
       end_point="20,35"
       center_point="20,22.5"
       id="path-effect1476"
       is_visible="true"
       lpeversion="1"
       mode="free"
       discard_orig_path="false"
       fuse_paths="false"
       oposite_fuse="false"
       split_items="false" />
  </defs>
  <sodipodi:namedview
     pagecolor="#ffffff"
     bordercolor="#666666"
     borderopacity="1"
     objecttolerance="10"
     gridtolerance="10"
     guidetolerance="10"
     inkscape:pageopacity="0"
     inkscape:pageshadow="2"
     inkscape:window-width="1600"
     inkscape:window-height="837"
     id="namedview3819"
     showgrid="true"
     inkscape:zoom="7.7535042"
     inkscape:cx="35.725782"
     inkscape:cy="41.271661"
     inkscape:window-x="-8"
     inkscape:window-y="-8"
     inkscape:window-maximized="1"
     inkscape:current-layer="layer4"
     inkscape:document-rotation="0"
     showguides="true"
     inkscape:showpageshadow="2"
     inkscape:pagecheckerboard="0"
     inkscape:deskcolor="#d1d1d1">
    <inkscape:grid
       type="xygrid"
       id="grid1472" />
  </sodipodi:namedview>
  <metadata
     id="metadata333">image/svg+xmlsidoarjo-black-white-seeklogo<rdf:RDF>
  <cc:Work
     rdf:about="">
    <dc:format>image/svg+xml</dc:format>
    <dc:type
       rdf:resource="http://purl.org/dc/dcmitype/StillImage" />
    <dc:title>sidoarjo-black-white-seeklogo</dc:title>
  </cc:Work>
</rdf:RDF>
</metadata>
  <title
     id="title183">sidoarjo-black-white-seeklogo</title>
  <style
     id="style185">tspan { white-space:pre }
		.shp0 { fill: #06060c } 
		.shp1 { fill: #ffffff } 
		.shp2 { fill: #ddad67 } 
		.shp3 { fill: #2c2e35 }</style>
  <g
     inkscape:groupmode="layer"
     id="layer4"
     inkscape:label="bingkai"
     style="display:inline;fill:#00ae00;fill-opacity:1">
    <path
       style="display:inline;fill:#00ae00;fill-opacity:1;stroke:#000000;stroke-width:1.481;stroke-linecap:butt;stroke-linejoin:miter;stroke-dasharray:none;stroke-opacity:1"
       d="m 72.574606,72.937996 c 0,0 -2.370147,-3.316004 0.38547,-7.107933 3.458027,-4.758496 3.429013,-8.793011 3.429013,-8.793011 0,0 2.862503,-2.546462 3.08337,-9.707361 0.179391,-5.816182 3.583202,-6.729826 3.583202,-6.729826 l 2.687955,-1.282767 -2.364908,-8.312892 -3.876087,0.948673 c 0,0 -3.189992,0.635539 -6.634241,-3.910909 -4.30411,-5.681475 -8.789205,-6.199813 -8.789205,-6.199813 0,0 -1.393727,-3.07282 -8.02318,-5.592783 -5.633868,-2.141525 -6.067991,-5.500906 -6.067991,-5.500906 l -0.07551,-2.3640208 -9.277479,-0.078125 0.0013,3.1438788 c 0,0 -1.304951,3.573813 -5.260187,4.697841 C 28.114571,18.211684 26.449194,21.89 26.449194,21.89 c 0,0 -4.282048,0.521123 -8.850839,6.66595 -3.364385,4.524953 -6.993923,3.506741 -6.993923,3.506741 l -3.5083645,-0.88981 -2.332964,8.268213 3.0372674,1.317069 c 0,0 3.0980321,1.384722 3.3393601,6.66216 0.383943,8.396184 2.790048,9.993579 2.790048,9.993579 0,0 -0.450714,3.434577 3.61988,8.676884 2.603854,3.353369 0.492949,6.914909 0.492949,6.914909 l -1.905943,2.579691 7.829706,5.848842 2.330368,-2.380443 c 0,0 2.113717,-2.908115 9.054177,-0.612083 5.600766,1.852836 10.1555,-0.245779 10.1555,-0.245779 0,0 3.619127,1.909946 10.553498,-0.191835 6.145563,-1.862696 8.415242,1.001202 8.415242,1.001202 l 1.988807,2.074958 7.922344,-5.616249 z"
       id="path5720"
       sodipodi:nodetypes="cscsccccscsccccscsccccscsccccscscccc"
       inkscape:label="hitam luar" />
    <path
       style="display:inline;fill:#00ae00;fill-opacity:1;stroke:#00afff;stroke-width:1.6;stroke-linecap:butt;stroke-linejoin:miter;stroke-dasharray:none;stroke-opacity:1"
       d="m 71.318414,73.810404 c 0,0 -2.945208,-3.950099 0.384297,-8.815205 3.640675,-5.319791 3.146467,-8.550816 3.146467,-8.550816 0,0 2.819638,-1.430872 3.093487,-9.242417 0.230174,-6.56574 4.24473,-7.898788 4.24473,-7.898788 l 1.790259,-0.767984 -1.66086,-5.667267 -2.531456,0.543406 c 0,0 -3.896935,0.872319 -7.836601,-4.389329 -4.660196,-6.223956 -8.799035,-5.777008 -8.799035,-5.777008 0,0 -1.288246,-3.200917 -7.047553,-5.364851 -6.730815,-2.476037 -7.527097,-6.416658 -7.527097,-6.416658 l -0.07428,-1.5437236 -6.330828,-0.03837 0.01301,1.4478566 c 0,0 -0.696575,4.435692 -6.643111,6.36151 -7.642935,2.44223 -8.003836,5.414034 -8.003836,5.414034 0,0 -4.121844,-0.06549 -8.7486,6.297945 -4.189029,5.684914 -8.9061653,4.062959 -8.9061653,4.062959 l -1.7104555,-0.423692 -1.58048,5.54045 2.0082727,0.968908 c 0,0 3.8042971,1.46725 4.0695721,7.94287 0.340578,8.313835 2.87791,9.308552 2.87791,9.308552 0,0 -1.013741,2.868157 3.45184,8.731613 2.872728,3.771986 0.269407,8.411629 0.269407,8.411629 l -0.989784,1.339608 5.525951,4.109937 1.011076,-1.02979 c 0,0 3.136813,-3.920899 9.750861,-1.630023 7.117688,2.46532 10.961883,-0.289539 10.961883,-0.289539 0,0 2.4208,2.30304 10.647663,0.03929 6.92222,-1.904753 9.792586,1.895667 9.792586,1.895667 l 0.708016,0.73646 5.572463,-4.019451 z"
       id="path5867"
       sodipodi:nodetypes="cscsccccscccccccccccccscsccccscscccc"
       inkscape:label="biru" />
    <path
       style="display:inline;fill:#009d4b;fill-opacity:1;stroke:#000000;stroke-width:0.553;stroke-linecap:butt;stroke-linejoin:miter;stroke-dasharray:none;stroke-opacity:1"
       d="m 70.329362,74.242869 c 0,0 -3.097524,-4.294205 0.575429,-9.982701 3.956987,-6.128394 2.71867,-8.35966 2.71867,-8.35966 0,0 2.904425,-0.359841 3.248241,-8.692737 0.272319,-6.600044 4.292724,-8.602575 4.292724,-8.602575 l 1.518419,-0.681243 -1.102986,-3.819644 -1.844448,0.391638 c 0,0 -4.376786,0.789266 -8.558026,-4.733955 -4.947505,-6.535421 -8.766629,-5.47094 -8.766629,-5.47094 0,0 -0.369274,-2.978265 -6.929787,-5.527598 -7.316904,-2.822106 -7.958221,-7.220271 -7.958221,-7.220271 l -0.03554,-0.571529 -4.264511,-0.03347 0.004,0.598137 c 0,0 -0.623317,4.885535 -7.716798,7.294646 -7.704236,2.477299 -7.143079,5.2896 -7.143079,5.2896 0,0 -3.568714,-0.862691 -8.482531,5.595563 -4.342588,5.932396 -9.21352,4.968978 -9.21352,4.968978 l -1.7575542,-0.377402 -1.0622335,3.702099 1.6627492,0.804882 c 0,0 4.0821865,2.46283 4.2040265,8.549849 0.179175,8.951411 3.078418,8.810073 3.078418,8.810073 0,0 -1.56722,2.772908 2.630177,8.150446 3.830481,4.90746 0.777999,10.077679 0.777999,10.077679 l -0.432072,0.653819 3.917722,2.9298 0.930892,-0.897262 c 0,0 3.261528,-3.654657 10.499026,-1.291613 6.951917,2.269801 10.41684,-0.523313 10.41684,-0.523313 0,0 2.652554,2.430859 9.46102,0.416143 7.556719,-2.236134 11.030238,1.257507 11.030238,1.257507 l 0.776504,0.749599 3.950763,-2.84721 z"
       id="path6574"
       sodipodi:nodetypes="cscsccccscccccccccccccscsccccscscccc"
       inkscape:label="hitam dalam" />
  </g>
  <g
     inkscape:groupmode="layer"
     id="layer5"
     inkscape:label="logo"
     style="display:inline">
    <path
       class="shp1"
       d="m 45.395227,63.19167 c 9.019214,0 16.374619,-7.074837 16.374619,-15.748815 0,-8.673979 -7.355405,-15.747609 -16.374619,-15.747609 -9.019213,0 -16.374616,7.07363 -16.374616,15.747609 0,8.673978 7.355403,15.748815 16.374616,15.748815 z"
       id="path194"
       style="display:inline;fill:#00afff;fill-opacity:1;stroke-width:0.122187"
       inkscape:label="latar biru" />
    <g
       id="g1718"
       inkscape:label="pita"
       style="display:inline">
      <path
         class="shp0"
         d="m 25.147091,64.973903 1.187416,-0.927288 C 23.724315,61.116923 22.094455,57.864226 21.023401,54.04145 l 0.495858,-0.427999 c 1.36857,1.398875 2.610458,2.815266 4.070265,4.038213 l 0.445933,-4.321635 0.713214,-0.112838 c 1.157003,3.539336 3.099762,6.757307 6.244062,9.627944 l -0.900275,0.97005 c 3.810912,3.14493 8.078176,4.396749 12.850671,4.651359 6.162196,0.32875 11.373008,-2.79717 13.377234,-4.764727 l -0.997007,-0.97005 c 2.981762,-2.322498 5.204969,-6.085032 6.360649,-9.624368 l 0.725937,0.306636 0.423132,4.162038 c 1.459807,-1.222947 2.690297,-2.662138 4.058865,-4.061013 l 0.494536,0.382399 c -1.069731,3.822777 -2.83771,7.30347 -5.446586,10.233166 l 1.233311,0.845533 c -4.935783,6.149425 -13.360587,9.507998 -20.867057,9.139243 -8.134713,-0.278287 -14.740559,-3.7849 -19.159052,-9.141498 z"
         id="path198"
         style="display:inline;fill:#000000;fill-opacity:1;stroke-width:0.127101"
         inkscape:label="dasaran hitam"
         sodipodi:nodetypes="cccccccccsccccccccccc" />
      <g
         id="g2277"
         inkscape:label="tulisan"
         style="display:inline"
         transform="matrix(0.95650688,0,0,0.99172807,5.2430824,0.28972042)">
        <path
           style="display:inline;fill:#ffff00;fill-opacity:1;stroke:none;stroke-width:0.0183992;stroke-linecap:square;stroke-miterlimit:0;stroke-opacity:1;paint-order:markers fill stroke"
           d="M 40.929141,73.771979 C 34.102125,73.448575 27.96215,71.344768 21.971585,65.375828 c 0.229026,-0.199185 3.410545,-2.723919 3.439661,-2.723919 4.157443,4.266825 10.128415,6.6637 15.505697,6.7967 7.650022,0.189213 12.807593,-2.608697 17.269434,-6.85917 1.221706,0.957578 2.269962,1.882741 3.377949,2.761024 -5.516591,6.045498 -13.808169,8.744919 -20.635185,8.421516 z"
           id="path992"
           inkscape:label="dasaran kuning tulisan"
           sodipodi:nodetypes="zccsccz" />
        <path
           class="shp0"
           d="m 56.955522,66.649038 c -0.18386,-0.172469 -0.308279,-0.341242 -0.376016,-0.50755 -0.04978,-0.123191 -0.07327,-0.248847 -0.07327,-0.380661 0,-0.131815 0.02626,-0.251311 0.0788,-0.35972 0.06913,-0.144134 0.178331,-0.282108 0.330397,-0.412691 0.273718,-0.235295 0.573702,-0.3474 0.902716,-0.333849 0.329016,0.01232 0.638676,0.156453 0.931747,0.43117 0.288926,0.274717 0.434079,0.558057 0.435461,0.852485 0,0.29566 -0.135475,0.560521 -0.409194,0.795817 -0.276483,0.238992 -0.577849,0.351096 -0.904099,0.338776 -0.324868,-0.01355 -0.631764,-0.155221 -0.916542,-0.423777 z m 0.374634,-0.344937 c 0.203216,0.192178 0.405048,0.294428 0.606882,0.310443 0.203214,0.01478 0.378781,-0.04189 0.528081,-0.171237 0.149301,-0.129351 0.221187,-0.28334 0.212893,-0.464431 -0.0084,-0.181092 -0.116123,-0.369575 -0.324868,-0.56545 -0.205979,-0.194642 -0.406431,-0.299355 -0.60135,-0.314138 -0.193538,-0.01478 -0.369105,0.04559 -0.523936,0.178628 -0.153448,0.133046 -0.228098,0.288268 -0.219804,0.466895 0.0084,0.177396 0.114741,0.364647 0.322102,0.55929 z"
           fill-rule="evenodd"
           id="path1001"
           style="display:inline;fill:#000600;fill-opacity:1;stroke-width:0.130499"
           inkscape:label="O2" />
        <path
           class="shp0"
           d="m 55.565289,66.203414 0.409195,-0.285804 1.00778,1.172783 c 0.132712,0.152757 0.218422,0.280876 0.259894,0.384357 0.05253,0.135511 0.05529,0.272253 0.0069,0.410228 -0.04978,0.137974 -0.158979,0.267325 -0.330399,0.385589 -0.201832,0.140438 -0.4009,0.197107 -0.597203,0.170005 -0.196303,-0.0271 -0.378781,-0.139208 -0.5502,-0.336313 l 0.352515,-0.310443 c 0.09539,0.103481 0.178333,0.166308 0.244688,0.189715 0.102299,0.0345 0.197685,0.02094 0.288924,-0.04189 0.09262,-0.06406 0.135477,-0.133047 0.132713,-0.206961 -0.0015,-0.07391 -0.06774,-0.18602 -0.197685,-0.335081 z"
           id="path290"
           style="display:inline;fill:#000000;fill-opacity:1;stroke-width:0.130499"
           inkscape:label="J" />
        <path
           class="shp0"
           d="m 54.345947,69.801355 -1.407298,-1.967368 0.920688,-0.530956 c 0.230863,-0.133046 0.411959,-0.211889 0.541907,-0.237759 0.129947,-0.02586 0.259894,-0.01108 0.387075,0.04312 0.128565,0.05421 0.233628,0.139207 0.316574,0.255007 0.105062,0.14783 0.145152,0.296892 0.117505,0.448417 -0.02626,0.151525 -0.125801,0.294427 -0.298602,0.428707 0.131329,-0.0049 0.248835,0.0062 0.352515,0.02957 0.105065,0.02463 0.264041,0.08377 0.478316,0.176164 l 0.539142,0.231599 -0.523935,0.30182 -0.622087,-0.246383 c -0.221186,-0.08746 -0.367722,-0.139206 -0.438225,-0.155221 -0.06912,-0.01724 -0.132712,-0.01847 -0.189391,-0.0062 -0.05669,0.01231 -0.135476,0.04682 -0.235011,0.104712 l -0.08986,0.05051 0.587527,0.821688 z m -0.374634,-1.387137 0.323484,-0.18725 c 0.210127,-0.120728 0.334545,-0.204498 0.376018,-0.250079 0.04009,-0.04682 0.0622,-0.09855 0.0622,-0.153989 0.0015,-0.05667 -0.01797,-0.114569 -0.06082,-0.1737 -0.04701,-0.06652 -0.105064,-0.108409 -0.172802,-0.126888 -0.06774,-0.01847 -0.141007,-0.01231 -0.219804,0.01847 -0.0387,0.01478 -0.146536,0.07514 -0.324868,0.177395 l -0.341456,0.197106 z"
           fill-rule="evenodd"
           id="path288"
           style="display:inline;fill:#000000;fill-opacity:1;stroke-width:0.130499"
           inkscape:label="R" />
        <path
           class="shp0"
           d="m 54.11285,69.908048 -0.505964,0.227905 -0.467255,-0.383126 -0.920689,0.415156 0.07603,0.559283 -0.493522,0.222976 -0.276483,-2.492157 0.492139,-0.221746 z m -1.320206,-0.439794 -0.753415,-0.631971 0.124417,0.915312 z"
           fill-rule="evenodd"
           id="path286"
           style="display:inline;fill:#000000;fill-opacity:1;stroke-width:0.130499"
           inkscape:label="A2" />
        <path
           class="shp0"
           d="m 49.116351,70.740469 c -0.107525,-0.218793 -0.160738,-0.41506 -0.161058,-0.591238 -7.89e-4,-0.130588 0.02594,-0.255464 0.07632,-0.379496 0.05038,-0.122796 0.120452,-0.227434 0.211593,-0.312701 0.11829,-0.114049 0.274246,-0.208995 0.466482,-0.28482 0.348798,-0.136289 0.674893,-0.147755 0.97967,-0.03444 0.304776,0.113314 0.54247,0.34354 0.713102,0.691905 0.169184,0.344687 0.196756,0.655957 0.08545,0.931294 -0.111274,0.277802 -0.341331,0.483614 -0.688744,0.619887 -0.350159,0.137535 -0.677614,0.150267 -0.979606,0.03812 -0.30199,-0.112129 -0.536855,-0.338704 -0.703189,-0.678515 z M 49.599397,70.533 c 0.118977,0.240783 0.271101,0.400941 0.454934,0.4768 0.185236,0.07706 0.373282,0.07769 0.562756,0.0019 0.190877,-0.07457 0.315926,-0.197353 0.377893,-0.369622 0.06061,-0.171016 0.03064,-0.381216 -0.09121,-0.629339 -0.120418,-0.244457 -0.26838,-0.40345 -0.446663,-0.478166 -0.176878,-0.07351 -0.364882,-0.07168 -0.561245,0.0054 -0.196362,0.07712 -0.325559,0.199974 -0.386185,0.369759 -0.05924,0.16976 -0.03074,0.376282 0.08975,0.623198 z"
           fill-rule="evenodd"
           id="path284"
           style="display:inline;fill:#000000;fill-opacity:1;stroke-width:0.130499"
           inkscape:label="O1" />
        <path
           class="shp0"
           d="m 46.553652,70.08608 0.919306,-0.215585 c 0.208744,-0.04805 0.370487,-0.07022 0.487992,-0.06652 0.158977,0.0049 0.304131,0.04435 0.438225,0.120726 0.134095,0.07514 0.248835,0.177397 0.345604,0.309217 0.09815,0.131815 0.176949,0.303051 0.24054,0.513696 0.0553,0.186019 0.07742,0.35234 0.06498,0.498925 -0.01244,0.178629 -0.06221,0.331385 -0.147919,0.460736 -0.06498,0.09733 -0.165889,0.184788 -0.301366,0.262399 -0.102299,0.0579 -0.24607,0.108408 -0.431313,0.151525 l -0.948336,0.220513 z m 0.616557,0.263624 0.442372,1.494313 0.376017,-0.08746 c 0.141006,-0.03327 0.24054,-0.06406 0.298601,-0.09239 0.07604,-0.0382 0.134096,-0.085 0.175567,-0.14167 0.04009,-0.05544 0.0636,-0.139208 0.06774,-0.247615 0.0042,-0.10964 -0.02073,-0.251311 -0.07189,-0.425011 -0.05116,-0.174932 -0.109211,-0.305515 -0.170039,-0.390517 -0.0622,-0.085 -0.131329,-0.146598 -0.20736,-0.184788 -0.07742,-0.03818 -0.16589,-0.05543 -0.265425,-0.05173 -0.07465,0.0013 -0.214274,0.0271 -0.418871,0.07392 z"
           fill-rule="evenodd"
           id="path282"
           style="display:inline;fill:#000000;fill-opacity:1;stroke-width:0.130499"
           inkscape:label="D" />
        <path
           class="shp0"
           d="m 46.291664,72.579452 -0.537759,-2.285196 0.51011,-0.09362 0.53776,2.285196 z"
           id="path280"
           style="display:inline;stroke-width:0.130499"
           inkscape:label="I" />
        <path
           class="shp0"
           d="m 43.727432,72.048107 0.497669,-0.09609 c 0.05115,0.150306 0.127183,0.256251 0.229481,0.317846 0.103679,0.0616 0.233628,0.08623 0.391223,0.07022 0.16589,-0.01724 0.287543,-0.06283 0.363575,-0.134279 0.07604,-0.07268 0.107828,-0.151526 0.09677,-0.236527 -0.0069,-0.05544 -0.0318,-0.09979 -0.07327,-0.135511 -0.04009,-0.03449 -0.106447,-0.0616 -0.199068,-0.08007 -0.0636,-0.01355 -0.20598,-0.03202 -0.428549,-0.05913 -0.286159,-0.0345 -0.492139,-0.09116 -0.615174,-0.170005 -0.175567,-0.110873 -0.275101,-0.258702 -0.299983,-0.442257 -0.01659,-0.117032 0.0054,-0.2316 0.06636,-0.341241 0.05944,-0.110872 0.156212,-0.19957 0.287542,-0.267325 0.132711,-0.06899 0.297219,-0.112104 0.494904,-0.131815 0.32072,-0.03325 0.57232,0.0062 0.752034,0.117032 0.179713,0.110872 0.288924,0.272253 0.32625,0.484142 l -0.51564,0.07268 c -0.03871,-0.117032 -0.09677,-0.197107 -0.17695,-0.241456 -0.08018,-0.04436 -0.193538,-0.06037 -0.338691,-0.04559 -0.150684,0.01601 -0.265424,0.05544 -0.342839,0.120727 -0.04977,0.04066 -0.07051,0.09116 -0.06221,0.151526 0.0069,0.05421 0.04009,0.09856 0.09538,0.133046 0.07327,0.04312 0.237775,0.07761 0.497668,0.105945 0.258512,0.02833 0.453433,0.06406 0.581997,0.10964 0.128564,0.04559 0.233629,0.113337 0.31519,0.20573 0.08156,0.09362 0.132712,0.213122 0.152066,0.358488 0.01797,0.133047 -0.0054,0.261166 -0.07189,0.385589 -0.06498,0.124423 -0.168655,0.222964 -0.311044,0.294427 -0.141005,0.07145 -0.323484,0.118265 -0.546053,0.140439 -0.324868,0.03325 -0.583379,-0.0086 -0.775536,-0.126888 -0.192154,-0.117044 -0.322102,-0.304282 -0.391222,-0.559301 z"
           id="path278"
           style="display:inline;fill:#000000;fill-opacity:1;stroke-width:0.130499"
           inkscape:label="S" />
        <path
           class="shp0"
           d="m 40.547509,72.887308 -0.08986,-2.329552 0.507346,-0.01108 1.116991,1.531257 -0.05945,-1.555908 0.483845,-0.0099 0.09124,2.329551 -0.523935,0.01232 -1.100402,-1.496777 0.05945,1.520182 z"
           id="path276"
           style="display:inline;stroke-width:0.130499"
           inkscape:label="N" />
        <path
           class="shp0"
           d="m 38.210509,72.680091 0.181097,-2.323391 1.910497,0.137975 -0.03041,0.392981 -1.39071,-0.09978 -0.04009,0.514928 1.293941,0.0924 -0.02902,0.391749 -1.295323,-0.09362 -0.04838,0.633205 1.440475,0.103481 -0.03041,0.391748 z"
           id="path274"
           style="display:inline;fill:#000000;fill-opacity:1;stroke-width:0.130499"
           inkscape:label="E" />
        <path
           class="shp0"
           d="m 40.312798,72.126294 0.321316,-1.893673 -0.724614,-0.11362 0.06611,-0.386072 1.938476,0.305438 -0.06479,0.386065 -0.721969,-0.114855 -0.321316,1.893674 z"
           id="path272"
           style="display:inline;fill:#000000;fill-opacity:1;stroke-width:0.127101"
           inkscape:label="T"
           transform="matrix(1.0454708,0,0,1.0083409,-5.4814895,-0.29213696)" />
        <path
           class="shp0"
           d="m 36.256656,72.315848 -0.548817,-0.136742 -0.06498,-0.564217 -0.998104,-0.250078 -0.356663,0.458271 -0.534994,-0.134278 1.640926,-2.000624 0.532229,0.13428 z m -0.663559,-1.11981 -0.09538,-0.917777 -0.58476,0.747773 z"
           fill-rule="evenodd"
           id="path270"
           style="display:inline;fill:#000000;fill-opacity:1;stroke-width:0.130499"
           inkscape:label="A1" />
        <path
           class="shp0"
           d="m 32.137164,71.13108 0.884744,-2.182947 0.787977,0.264862 c 0.29722,0.101016 0.487992,0.177396 0.569555,0.230368 0.125799,0.07884 0.214274,0.189714 0.262659,0.331384 0.05115,0.141671 0.04009,0.298124 -0.03041,0.473049 -0.05391,0.134291 -0.127183,0.237761 -0.218422,0.310443 -0.09124,0.07269 -0.18939,0.12196 -0.293072,0.145366 -0.105063,0.02463 -0.204598,0.02957 -0.297219,0.01724 -0.1258,-0.01847 -0.298602,-0.06406 -0.52117,-0.139205 l -0.319338,-0.10841 -0.334544,0.824151 z m 1.2262,-1.648296 -0.251598,0.619653 0.268189,0.09116 c 0.193538,0.06528 0.327632,0.09731 0.402282,0.09609 0.07465,-0.0013 0.141006,-0.01971 0.197685,-0.05544 0.0553,-0.03572 0.09815,-0.08746 0.123035,-0.15152 0.03318,-0.07884 0.03318,-0.153989 0.0027,-0.222976 -0.03179,-0.06899 -0.08433,-0.123192 -0.158978,-0.162613 -0.05391,-0.03079 -0.170036,-0.07514 -0.346985,-0.134278 z"
           fill-rule="evenodd"
           id="path268"
           style="display:inline;fill:#000000;fill-opacity:1;stroke-width:0.130499"
           inkscape:label="P" />
        <path
           class="shp0"
           d="m 30.879432,67.999317 0.472786,0.203266 -0.591674,1.139522 c -0.094,0.179859 -0.1493,0.299355 -0.164507,0.358486 -0.02488,0.09485 -0.01382,0.184788 0.03593,0.26979 0.04977,0.085 0.139624,0.155222 0.272335,0.211889 0.134094,0.05791 0.247452,0.07639 0.341457,0.05668 0.094,-0.01971 0.167272,-0.06284 0.217039,-0.128125 0.05116,-0.06652 0.12027,-0.182324 0.205979,-0.348632 l 0.605497,-1.16416 0.472786,0.204498 -0.573702,1.103796 c -0.131329,0.252543 -0.237774,0.425017 -0.316573,0.518642 -0.08018,0.09363 -0.172801,0.160149 -0.279247,0.203267 -0.105063,0.04189 -0.226716,0.06037 -0.363575,0.05296 -0.136858,-0.0075 -0.298601,-0.05049 -0.483845,-0.130571 -0.223951,-0.09486 -0.381546,-0.190947 -0.472786,-0.28828 -0.09124,-0.09486 -0.152066,-0.194636 -0.179714,-0.296886 -0.02902,-0.103481 -0.03317,-0.19957 -0.01244,-0.290732 0.03179,-0.133047 0.109211,-0.317834 0.230863,-0.553129 z"
           id="path266"
           style="display:inline;fill:#000000;fill-opacity:1;stroke-width:0.130499"
           inkscape:label="U" />
        <path
           class="shp0"
           d="m 28.950724,66.890112 0.894422,0.474287 c 0.176949,0.09362 0.305514,0.170003 0.384311,0.229135 0.07742,0.05913 0.138242,0.12812 0.179715,0.206962 0.04147,0.07761 0.06222,0.165077 0.0636,0.258702 0.0015,0.09363 -0.02626,0.184787 -0.08295,0.271022 -0.05945,0.09363 -0.143771,0.165076 -0.250217,0.214353 -0.107829,0.04805 -0.222569,0.06652 -0.344221,0.05421 0.113357,0.108408 0.179713,0.224208 0.197685,0.348632 0.01797,0.124423 -0.01106,0.245151 -0.08571,0.360951 -0.05806,0.09116 -0.139623,0.16754 -0.241922,0.229136 -0.102299,0.0616 -0.211509,0.09608 -0.327632,0.104713 -0.114741,0.0075 -0.236394,-0.01355 -0.363575,-0.06652 -0.08018,-0.03203 -0.265425,-0.123191 -0.554348,-0.274718 L 27.658171,68.89814 Z m 0.236394,0.572839 -0.298602,0.464433 0.295836,0.157684 c 0.176949,0.09239 0.287543,0.149062 0.333162,0.166309 0.08156,0.03327 0.158978,0.04066 0.228099,0.02463 0.07051,-0.01601 0.1258,-0.05667 0.167273,-0.120728 0.04146,-0.06283 0.05391,-0.123191 0.04146,-0.182323 -0.01382,-0.05913 -0.0553,-0.112105 -0.125799,-0.160149 -0.04147,-0.02833 -0.168655,-0.09978 -0.381547,-0.21189 z m -0.514259,0.798281 -0.345603,0.537115 0.418871,0.221745 c 0.163125,0.08623 0.268188,0.136742 0.317956,0.152757 0.07327,0.02463 0.146535,0.02586 0.215656,0.0062 0.06912,-0.01971 0.127182,-0.06652 0.172802,-0.136743 0.03871,-0.06036 0.0553,-0.119495 0.04978,-0.179859 -0.0054,-0.05913 -0.03317,-0.114568 -0.08156,-0.166308 -0.04976,-0.05175 -0.176948,-0.131816 -0.382928,-0.241456 z"
           fill-rule="evenodd"
           id="path264"
           style="display:inline;fill:#000000;fill-opacity:1;stroke-width:0.130499"
           inkscape:label="B" />
        <path
           class="shp0"
           d="m 27.548285,68.849645 -0.447902,-0.319066 0.183861,-0.540811 -0.814243,-0.581463 -0.529464,0.294428 -0.436844,-0.311675 2.384666,-1.257784 0.435461,0.311674 z m -0.127181,-1.261481 0.30966,-0.877123 -0.865392,0.480447 z"
           fill-rule="evenodd"
           id="&lt;Compound Path&gt;"
           style="display:inline;fill:#000002;fill-opacity:1;stroke-width:0.130499"
           inkscape:label="A" />
        <path
           class="shp0"
           d="m 23.778441,65.911537 1.762578,-1.688955 0.381546,0.323993 -0.782447,0.750237 1.553836,-0.09486 0.512874,0.436099 -1.397621,0.05298 -0.326249,1.669244 -0.493522,-0.420083 0.308279,-1.234379 -0.605498,0.0197 -0.53223,0.510013 z"
           id="path261"
           style="display:inline;fill:#000000;fill-opacity:1;stroke-width:0.130499"
           inkscape:label="K" />
      </g>
      <path
         style="display:inline;fill:#ffff00;fill-opacity:1;stroke:none;stroke-width:0.0183992;stroke-linecap:square;stroke-miterlimit:0;stroke-opacity:1;paint-order:markers fill stroke"
         d="m 60.02981,60.865074 c 1.96743,-1.96475 2.723041,-3.718584 3.585585,-5.655544 0.161673,1.119424 0.44355,2.045844 0.436778,3.242374 -0.05085,0.383443 0.421032,0.215111 0.578472,0.295549 1.146891,-0.907666 2.267763,-2.328337 3.178105,-3.169065 -0.654361,3.040715 -2.58474,5.857584 -4.452586,8.014928 C 62.30053,62.630737 61.061387,61.63784 60.02981,60.865074 Z"
         id="path994"
         inkscape:label="kuning kanan"
         sodipodi:nodetypes="ccccccc" />
      <path
         style="display:inline;fill:#ffff00;fill-opacity:1;stroke:none;stroke-width:0.0183992;stroke-linecap:square;stroke-miterlimit:0;stroke-opacity:1;paint-order:markers fill stroke"
         d="m 22.316295,55.709031 c 1.218347,1.013062 3.699162,3.271095 3.699162,3.271095 0,0 0.36159,-2.623664 0.537372,-3.852829 1.068602,2.280947 2.219699,4.249329 3.544925,5.781874 -1.074901,0.902989 -2.130889,1.852074 -3.197139,2.691057 -2.053846,-2.614547 -3.434496,-4.92571 -4.58432,-7.891197 z"
         id="path988"
         inkscape:label="kuning kiri"
         sodipodi:nodetypes="cccccc" />
      <path
         class="shp1"
         d="m 58.201197,62.785407 1.462773,-1.461992 0.613862,0.50619 -1.482966,1.504734 z"
         id="path255"
         style="display:inline;fill:#ffff00;fill-opacity:1;stroke-width:0.127101"
         inkscape:label="kotak kuning kanan"
         sodipodi:nodetypes="ccccc" />
      <path
         class="shp1"
         d="m 32.008742,62.817176 -1.439973,-1.439192 -0.591063,0.46059 1.465401,1.461901 z"
         id="path251"
         style="display:inline;fill:#ffff04;fill-opacity:1;stroke-width:0.127101"
         inkscape:label="kotak kuning kiri"
         sodipodi:nodetypes="ccccc" />
    </g>
    <g
       id="g1042"
       inkscape:label="bandeng"
       transform="translate(1.7485793,-2.8897594)"
       style="display:inline">
      <path
         class="shp0"
         d="m 41.62881,51.16368 c 0.207599,0.133168 0.109546,0.08185 0.317145,0.215024 0.30016,-1.393988 -0.352492,-3.157755 -1.645691,-4.683689 -1.291877,-1.527156 -1.537767,-2.66285 -0.879267,-3.989643 0.657177,-1.328015 1.590305,-1.653799 2.802843,-1.78208 0.567262,-0.05987 1.132589,0.06964 1.877037,0.520455 l 1.187341,2.350907 0.854757,-0.323557 c 0.823786,0.940729 1.293833,3.626684 2.136131,5.517913 0.09256,-1.814261 0.158954,-3.471523 0.251514,-5.284563 1.845915,0.175928 3.274492,0.27458 5.120408,0.451729 -1.36857,-0.977379 -2.876688,-1.69249 -4.433581,-2.376965 -1.060475,-0.398281 -1.610698,-0.89155 -2.762411,-1.733318 0.357018,-0.120951 0.967711,-0.311742 0.967711,-0.311742 0,0 -1.616472,-0.43931 -2.51695,-0.671438 -2.415822,-1.598016 -4.934169,-1.745134 -8.272949,-0.158113 -0.08066,-0.299322 -0.259727,-1.060564 -0.259727,-1.060564 0,0 -0.28068,0.930539 -0.534559,1.482758 -2.565241,2.279738 -2.050591,5.277354 -1.480684,7.124601 1.97021,4.342009 4.262799,5.275097 7.24985,5.198129 -0.103139,-0.188146 0.02108,-0.485844 0.02108,-0.485844 z"
         id="path296"
         style="display:inline;fill:#000000;fill-opacity:1;stroke-width:0.127;stroke-dasharray:none"
         inkscape:label="dasaran hitam"
         sodipodi:nodetypes="cccccccccccccccccccccc" />
      <path
         class="shp1"
         d="m 38.853046,48.040905 c 0.267102,-0.549775 0.600319,-1.007922 1.314355,-0.805116 0.614289,0.558497 0.933021,1.302358 1.213857,2.00363 0.257357,0.747255 0.234179,1.075786 0.21558,1.890042 -0.560105,0.09598 -1.156018,-0.0039 -1.6674,-0.06727 l -0.02512,-0.0049 c -0.833042,-0.831994 -1.438651,-1.831364 -1.05122,-3.016437 z m 1.334189,1.120323 c 0,0.21991 0.186443,0.398281 0.416521,0.398281 0.230078,0 0.415199,-0.178371 0.415199,-0.398281 0,-0.221133 -0.185121,-0.399505 -0.415199,-0.399505 -0.230078,0 -0.416521,0.178372 -0.416521,0.399505 z"
         fill-rule="evenodd"
         id="path320"
         style="display:inline;fill:#ffffff;fill-opacity:1;stroke-width:0.127101"
         inkscape:label="kepala"
         sodipodi:nodetypes="ccccccccsssss" />
      <path
         class="shp1"
         d="m 48.46019,41.968065 c -2.151074,-1.128012 -3.959655,-3.114773 -6.337247,-3.661741 -1.160014,-0.266862 -2.927797,0.01742 -3.561763,0.255859 1.791572,0.906705 0.932761,1.367359 -1.398434,2.096728 1.401627,-0.889415 1.851839,-1.336181 0.253192,-1.722246 -1.487941,0.627279 -2.521426,2.166328 -2.880793,3.422936 -0.480109,1.737257 -0.08018,3.499253 0.628573,4.933203 0.565864,0.02485 0.653974,-1.108709 0.639429,-2.802019 0.941469,1.833809 0.384892,3.442497 0.601104,4.448891 0.135894,0.632541 1.314327,1.378526 2.726612,1.938171 -0.531561,-0.734256 -0.881967,-1.516159 -0.766928,-2.279738 0.121651,-0.87842 0.686268,-1.514938 1.521955,-1.79227 -1.022064,-1.283353 -1.64652,-2.191389 -1.096101,-3.799563 0.871034,-2.469284 3.093564,-2.6707 4.859412,-2.260637 2.065027,0.605051 3.751332,3.983158 4.24906,6.046247 0,0 0.140302,-2.152778 0.172841,-3.613559 1.405627,0.13508 3.808445,0.372796 3.808445,0.372796 0,0 -2.166183,-1.022426 -3.419357,-1.583058 z"
         id="path318"
         style="display:inline;fill:#ffffff;fill-opacity:1;stroke-width:0.127101"
         inkscape:label="putih"
         sodipodi:nodetypes="caccccccsccccccccc" />
    </g>
    <g
       id="g1158"
       inkscape:label="urang"
       transform="translate(0.29541834,0.0651797)"
       style="display:inline">
      <path
         class="shp0"
         d="m 43.079505,43.42222 4.120252,2.81241 c 2.033682,0.360408 5.598872,3.819716 5.01442,5.190491 0.986428,1.678649 0.632054,4.418159 -1.256174,4.994813 -0.530239,0.890638 -2.436625,1.809172 -3.633296,1.752973 -1.488898,1.552811 -5.068578,0.845836 -6.578632,-0.661772 -2.152687,-0.411721 -3.765117,-0.876997 -3.683135,-1.288718 0.129585,-0.31887 0.663995,-0.286286 1.392575,-0.111579 -0.300159,-0.463034 -0.716939,-1.081226 -0.116625,-1.081226 1.298488,0.427603 2.35103,0.867826 2.961928,1.625295 l 3.803257,0.09591 -0.604082,-0.577673 1.223118,0.163912 0.53115,-0.339643 -0.486956,-0.56586 0.977731,0.07981 0.466359,-0.60078 -0.769025,-0.361428 1.104746,-0.09723 -0.394537,-0.579655 0.626141,0.07366 -0.46781,-0.81769 c 0,0 0.544882,0.195847 0.666574,-0.007 0.129912,-0.216532 -0.192496,-0.732676 -0.192496,-0.732676 l -3.281801,0.05233 -1.700185,-0.449951 -2.703457,-2.574327 0.315124,-0.137747 2.573249,2.256526 0.653146,-0.02704 -1.401497,-1.527867 0.430442,0.146919 1.404765,1.145716 1.780919,-0.01502 -0.250954,-0.352723 -1.591973,-0.33913 -1.499345,-1.149643 0.565456,-0.03492 1.188812,0.776507 1.132159,0.07539 0.495913,-0.466839 -0.981118,-0.826255 -1.105369,-0.384488 -0.0049,-0.509151 1.0419,0.509151 -0.02792,-0.868788 -1.295424,-1.596545 1.33663,0.433867 -1.179731,-1.190892 1.820913,0.65065 -2.126327,-1.947592 z"
         id="path298"
         style="display:inline;fill:#000000;fill-opacity:1;stroke-width:0.127101"
         inkscape:label="dasaran hitam"
         sodipodi:nodetypes="ccccccccccccccccccccccsccccccccccccccccccccccccccccc" />
      <path
         class="shp1"
         d="m 47.172609,57.915628 c -0.429743,-0.246789 -0.784117,-0.607197 -1.061798,-1.081227 -1.451873,0.471586 -3.349977,0.438187 -5.059697,0.331897 1.66344,1.380549 3.373779,1.790239 6.121495,0.74933 z m -0.808881,-1.22133 c 0.396687,0.401948 0.472058,0.773352 1.030063,1.050684 1.036675,-0.34697 2.158838,-0.519637 3.106919,-1.371179 -0.679297,-0.731813 -1.441436,-1.30278 -2.511027,-1.761727 -0.423133,0.875976 -0.944976,1.536111 -1.625955,2.082222 z m 1.684676,-2.387663 c 1.041964,0.271223 2.008558,0.999372 2.704082,1.854579 1.980788,-1.656659 1.67534,-3.495355 0.879321,-4.553368 -0.602963,0.09041 -1.789056,0.423938 -3.164236,0.844212 0.08595,0.690274 0.01058,1.328014 -0.419167,1.854577 z m -2.986848,-6.650268 c 0.02884,0.36219 0.124655,0.711044 0.221182,1.02014 1.437329,1.158195 2.267124,2.293582 3.018184,3.534854 1.082954,-0.691497 2.032898,-1.010366 3.277172,-1.143535 -0.171898,-0.185702 -0.437857,-0.997341 -0.609754,-1.183043 -0.547349,0.09085 -0.56095,0.04522 -1.114449,-0.0342 0.333217,-0.09285 0.479929,-0.166559 0.725876,-0.506199 -0.267103,-0.2981 -0.632055,-0.656074 -0.90048,-0.954174 -0.461478,0.360408 -0.587034,0.542858 -1.048513,0.40969 0.09652,-0.360409 0.419565,-0.724473 0.0017,-1.270584 -0.547427,0.526563 -0.731626,0.735469 -1.193105,0.682935 0.429745,-0.272445 0.698169,-0.674392 0.61222,-1.35978 -0.288258,-0.135611 -0.554039,-0.291992 -0.933536,-0.33964 -0.462801,-0.11362 -0.6704,-0.180815 -1.04593,-0.04643 -0.914977,0.581257 -0.768921,0.726657 -1.010589,1.189965 z"
         fill-rule="evenodd"
         id="path322"
         style="display:inline;fill:#ffffff;fill-opacity:1;stroke-width:0.127101"
         inkscape:label="putih"
         sodipodi:nodetypes="cccccccccccccccccccccccccccccc" />
    </g>
    <g
       id="g5839"
       inkscape:label="pari"
       style="display:inline">
      <path
         class="shp0"
         d="m 44.912236,62.1607 c 0,0 0.0057,0.856514 0.07843,1.161945 1.786413,-0.188145 3.467021,-0.304535 5.253434,-0.49268 3.152337,2.180778 5.752295,0.734581 6.56418,-1.106557 -1.150391,-0.306654 -2.790406,-0.34298 -4.104761,-0.251351 0.170575,-0.164933 1.006282,-0.447151 1.178179,-0.612083 3.263784,0.643113 5.663247,0.09831 6.631162,-3.516774 -1.150391,0.280997 -3.542807,1.438457 -4.693198,1.95769 0.195698,-0.280997 1.886933,-1.710188 2.082632,-1.991185 2.501771,-0.31887 4.113966,-1.404192 5.473279,-4.402304 -1.254852,0.416608 -2.537611,0.923261 -4.707488,3.014855 0.220823,-0.586429 0.701185,-1.192833 0.920685,-1.778039 0.392719,-0.234572 0.759179,-0.49408 1.150576,-0.728652 2.286238,-1.092222 4.889408,-1.479939 3.223324,-6.442584 -1.348735,1.302358 -2.126009,2.578196 -2.978886,4.277614 0.105783,-0.839325 0.338266,-1.660318 0.453722,-2.858689 0.136783,-0.45246 0.194041,-0.757513 0.615059,-0.727501 2.591686,-1.329237 3.046902,-3.006807 1.666432,-6.762388 -0.846265,1.290141 -1.480198,3.641089 -1.681349,5.352799 -0.07405,0.294435 -0.347427,0.783723 -0.588232,1.004908 -0.05379,-0.479518 0.157841,-2.635579 -0.06461,-3.646196 2.628271,-3.159958 1.638873,-4.863612 -0.232166,-7.063938 -1.309839,2.282985 -0.46425,3.664291 -0.554364,4.823521 0.04496,-0.273666 -0.964366,-1.836405 -0.844038,-2.061202 1.880295,-3.555219 -0.67548,-5.536352 -2.389167,-6.325586 -0.178509,2.074488 1.714429,5.154093 1.012294,5.545045 -0.740482,-0.646293 -1.152063,-2.523794 -1.788083,-3.203073 0.284292,-4.279701 -1.369683,-4.797351 -4.161035,-5.503508 0.02776,2.028064 0.958636,4.014085 2.828353,4.945039 0.235368,0.117285 0.340384,0.675681 0.340384,0.675681 -1.379299,-1.015412 -2.532613,-2.054449 -3.707094,-2.821245 0.444289,-2.489874 -0.990371,-3.623279 -4.840877,-3.843189 0.367597,0.889415 1.888182,2.770368 3.584679,3.092903 0.247268,0.04643 0.250517,0.368101 0.456793,0.478056 -0.821165,0.158677 -2.511583,-1.012668 -3.560159,-1.439049 -1.27072,-0.51679 -2.432802,0.144962 -3.047667,0.852334 0.605608,1.188737 2.741267,1.651771 6.232111,1.05557 0.391397,0.216244 1.968865,1.11536 2.18572,1.241197 l -0.68265,0.08969 c -0.386108,-0.872311 -5.267999,-0.866202 -6.48186,-0.660953 0.190409,0.232128 3.428696,3.495354 7.11127,1.026249 0.234046,-0.06719 0.379312,0.184843 0.662281,0.145743 1.228012,0.785857 2.333771,1.594707 2.943347,2.394936 -2.487226,-1.554034 -3.985705,-1.35949 -5.539395,-0.769397 1.68063,1.82037 3.472284,2.867891 6.735694,2.457391 0.555361,0.328644 1.22512,1.109343 1.527923,1.441652 0.79922,1.081301 1.009367,1.913252 1.12316,2.874792 -0.778828,-1.997519 -2.264394,-3.589014 -4.718563,-3.981188 0.511726,3.114177 2.312452,4.466766 4.872403,4.992108 0.497181,0.763578 0.621847,3.775921 0.514742,4.719092 -0.04232,0.367739 -0.308465,-0.411721 -0.304498,-0.467921 0.179832,-2.653585 -1.35646,-4.66792 -3.128326,-5.091858 -0.476025,3.084854 0.710926,5.038446 2.541972,5.591041 0.216855,-0.07452 0.301482,0.886254 0.505116,1.012091 0.09652,1.145978 -0.246689,1.577891 -0.480735,2.247395 -0.310738,-2.258968 -1.294126,-3.552411 -2.518566,-4.935403 -1.116011,1.7996 -1.069546,4.607263 1.296029,6.719625 -0.164126,1.00928 -1.081679,2.274858 -1.53005,2.916109 0.801307,-1.390322 1.051775,-3.587983 -0.84042,-5.394914 -1.235018,2.5363 -1.015332,4.405679 -0.09766,6.227271 -0.637343,0.6805 -1.15222,1.297802 -1.78824,1.978303 0.848909,-1.489283 1.187734,-2.792616 0.71171,-4.36131 -0.469413,0.550997 -1.77126,1.659017 -2.515709,3.850791 -0.605608,1.782496 -1.682385,2.552183 -1.804035,2.656029 -0.4152,0.09407 -0.902256,0.293953 -1.317454,0.3868 2.497804,-1.560142 3.112194,-3.413662 3.12674,-5.451499 -2.890524,1.295029 -3.898069,3.037533 -3.972118,5.206094 C 45.680495,62.158388 44.91224,62.1607 44.91224,62.1607 Z"
         id="path204"
         style="fill:#000000;fill-opacity:1;stroke-width:0.127101"
         sodipodi:nodetypes="ccccccccccccccccccccccccccccccccccccccccccccccccccccccccccccccccccccc"
         inkscape:label="tangkai" />
      <g
         id="g5892"
         inkscape:label="daun">
        <path
           class="shp1"
           d="m 52.740525,60.996645 c 1.660795,-1.343897 2.440946,-3.141054 2.2069,-4.488617 -0.42181,-0.04154 -2.090539,3.164267 -2.2069,4.488617 z"
           id="path208"
           style="fill:#fff600;fill-opacity:1;stroke-width:0.127101" />
        <path
           class="shp1"
           d="m 49.470523,61.499831 c 0.191732,-1.951094 1.322289,-3.303543 2.664413,-3.604087 0.293547,0.351857 -1.55369,3.007886 -2.664413,3.604087 z"
           id="path210"
           style="fill:#fff600;fill-opacity:1;stroke-width:0.127101" />
        <path
           class="shp1"
           d="m 47.778526,29.364339 c 1.710325,0.179586 3.449321,0.754732 3.696147,2.441435 -0.734244,-0.200713 -3.019246,-1.208981 -3.696147,-2.441435 z"
           id="path212"
           style="fill:#fff600;fill-opacity:1;stroke-width:0.120963" />
        <path
           class="shp1"
           d="m 49.633721,32.64424 c -1.734843,-1.16186 -3.521256,-1.740957 -4.721895,-0.769686 0.522306,0.767243 3.854473,0.940727 4.721895,0.769686 z"
           id="path214"
           style="fill:#fff600;fill-opacity:1;stroke-width:0.127101" />
        <path
           class="shp1"
           d="m 56.102683,34.872881 c 0.136195,-2.125802 -0.888578,-4.041466 -3.213162,-4.532599 -0.162642,1.150865 2.163265,4.272371 3.213162,4.532599 z"
           id="path216"
           style="fill:#fff600;fill-opacity:1;stroke-width:0.127101" />
        <path
           class="shp1"
           d="m 51.915018,34.490984 c -1.658151,0.954167 -3.740755,0.532672 -5.183373,-0.39706 0.702135,-0.326201 4.417767,-0.0281 5.183373,0.39706 z"
           id="path218"
           style="fill:#fff600;fill-opacity:1;stroke-width:0.127101" />
        <path
           class="shp1"
           d="m 57.329211,38.119506 c -1.968889,0.629189 -4.703383,-0.598645 -5.429319,-1.58702 0.405943,-0.278553 4.741729,0.734256 5.429319,1.58702 z"
           id="path220"
           style="fill:#fff600;fill-opacity:1;stroke-width:0.127101" />
        <path
           class="shp1"
           d="m 59.411954,38.99081 c 0.844944,-1.837474 -0.200988,-4.495946 -1.588068,-5.027396 0.06612,0.313983 1.29981,4.359113 1.588068,5.027396 z"
           id="path222"
           style="fill:#fff600;fill-opacity:1;stroke-width:0.127101" />
        <path
           class="shp1"
           d="m 60.149444,43.419059 c -1.89484,-0.285884 -3.736789,-2.612048 -3.894141,-3.717709 0.454867,-0.06353 3.707698,2.737885 3.894141,3.717709 z"
           id="path224"
           style="fill:#fff600;fill-opacity:1;stroke-width:0.127101" />
        <path
           class="shp1"
           d="m 61.425222,42.711391 c 1.279976,-1.497834 1.318321,-4.070786 -0.09785,-5.053053 -0.469413,0.337196 -0.524949,4.316354 0.09785,5.053053 z"
           id="path226"
           style="fill:#fff600;fill-opacity:1;stroke-width:0.127101" />
        <path
           class="shp1"
           d="m 60.200045,48.442142 c -1.716979,-0.97221 -2.460325,-3.560809 -2.05662,-4.631911 0.541271,0.03067 2.384384,3.568744 2.05662,4.631911 z"
           id="path228"
           style="fill:#fff600;fill-opacity:1;stroke-width:0.127101" />
        <path
           class="shp1"
           d="m 61.999837,47.35955 c 1.664762,-1.584577 2.235991,-3.696939 1.463774,-4.871017 0.174542,0.250454 -0.908412,3.816668 -1.463774,4.871017 z"
           id="path230"
           style="fill:#fff600;fill-opacity:1;stroke-width:0.127101" />
        <path
           class="shp1"
           d="m 60.268775,52.989686 c 2.763584,-0.893081 4.218102,-2.945578 3.529189,-4.677983 -0.200988,-0.03788 -2.808542,3.370738 -3.529189,4.677983 z"
           id="path232"
           style="fill:#fff600;fill-opacity:1;stroke-width:0.127101" />
        <path
           class="shp1"
           d="m 59.539846,53.412907 c -1.814181,-0.95661 -2.385409,-3.876532 -1.753355,-5.073822 0.462801,0.0953 2.077316,3.997483 1.753355,5.073822 z"
           id="path234"
           style="fill:#fff600;fill-opacity:1;stroke-width:0.127101" />
        <path
           class="shp1"
           d="m 56.908886,57.229575 c -1.018163,-1.795936 -1.02213,-3.739699 -0.255202,-4.935768 0.604286,0.278553 0.874033,3.833772 0.255202,4.935768 z"
           id="path236"
           style="fill:#fff600;fill-opacity:1;stroke-width:0.127101" />
        <path
           class="shp1"
           d="m 58.075677,56.840059 c 2.120952,-0.459368 3.810837,-1.703084 4.427024,-2.990781 -0.310738,-0.221133 -3.546379,1.875346 -4.427024,2.990781 z"
           id="path238"
           style="fill:#fff600;fill-opacity:1;stroke-width:0.127101" />
        <path
           class="shp1"
           d="m 54.904203,60.563095 c 2.234669,0.117285 4.09513,-0.896747 4.754952,-2.13924 -0.323961,-0.334753 -3.818771,1.165525 -4.754952,2.13924 z"
           id="path240"
           style="display:inline;fill:#fff600;fill-opacity:1;stroke-width:0.127101" />
        <path
           class="shp1"
           d="m 50.936034,62.589772 c 2.06806,0.819778 4.058105,0.563216 5.110647,-0.399504 -0.189087,-0.420273 -3.890174,-0.221132 -5.110647,0.399504 z"
           id="path242"
           style="display:inline;fill:#fff600;fill-opacity:1;stroke-width:0.127101" />
      </g>
    </g>
    <g
       id="g5024"
       inkscape:label="sosis"
       style="display:inline">
      <path
         style="display:inline;fill:#fff600;fill-opacity:1;stroke:#fff600;stroke-width:0.218;stroke-linecap:square;stroke-dasharray:none;stroke-opacity:1;paint-order:markers fill stroke"
         d="m 40.373498,63.420005 c -2.128483,-0.542678 -2.70333,-0.746475 -3.725663,-1.32084 -0.821815,-0.46171 -2.154796,-1.379187 -2.208995,-1.520428 -0.03502,-0.09127 0.100625,-0.323515 0.526657,-0.901666 0.394114,-0.534838 0.609668,-0.74414 0.766366,-0.74414 0.05956,0 0.206063,0.06016 0.32557,0.133697 0.381822,0.234938 1.903082,0.950803 2.656663,1.250157 0.839751,0.333584 1.752722,0.605477 2.916816,0.868659 1.040667,0.235278 0.969758,0.207563 0.814061,0.318174 -0.209753,0.149014 -0.418348,0.455787 -0.512536,0.753769 -0.126119,0.399002 -0.09884,0.976026 0.06273,1.32698 0.07372,0.16014 0.09746,0.253726 0.06419,0.25306 -0.02904,-5.79e-4 -0.787677,-0.188421 -1.685862,-0.417422 z m 0.47874,-0.211288 c 0.01452,-0.05469 0.05479,-0.191523 0.08948,-0.304074 l 0.06307,-0.204636 -0.515577,-0.164627 c -1.86629,-0.595916 -2.743667,-0.994824 -4.481715,-2.037655 -0.219055,-0.131433 -0.415875,-0.238969 -0.437378,-0.238969 -0.05577,0 -0.356009,0.480578 -0.328274,0.525454 0.07759,0.12554 2.293913,1.341106 2.964023,1.625649 0.452479,0.192133 2.456819,0.891109 2.56952,0.896073 0.02775,0.0012 0.06233,-0.04252 0.07686,-0.09721 z"
         id="path5511" />
      <path
         style="display:inline;fill:none;stroke:#000000;stroke-width:0.4;stroke-linecap:butt;stroke-linejoin:miter;stroke-dasharray:none;stroke-opacity:1"
         d="m 39.575263,36.345636 c -1.857136,0.685153 -2.28613,1.1414 -3.249695,1.450243 -0.305286,0.09785 -0.737393,-0.446197 -1.189801,-0.978428 -0.426059,-0.501234 -0.914311,-1.005965 -0.538309,-1.278694 1.444628,-1.047845 2.083124,-1.266973 3.679112,-1.89341 2.133651,-0.837474 4.961435,-0.875092 4.961435,-0.875092 0,0 0.491016,0.610551 0.574889,1.080021 0.08318,0.465568 -0.469086,1.26527 -0.469086,1.26527 -0.755724,0.285579 -2.902045,0.915843 -3.768544,1.230086 z"
         id="path4633"
         sodipodi:nodetypes="ssssscsccs"
         transform="translate(0,-2.3872679)" />
      <path
         id="path4743"
         style="display:inline;fill:#f7f700;fill-opacity:1;stroke:#000000;stroke-width:0.452076;stroke-linecap:square;paint-order:markers fill stroke"
         d="m 44.16419,31.546814 c 0,0.638123 -0.430457,1.155424 -0.961453,1.155424 -0.530995,-1e-6 -0.961449,-0.623104 -0.961449,-1.261227 0,-0.638123 0.430457,-1.04962 0.961449,-1.049621 0.530996,0 0.961453,0.517301 0.961453,1.155424 z"
         sodipodi:nodetypes="sssss" />
      <path
         style="display:inline;fill:none;stroke:#000000;stroke-width:0.6;stroke-linecap:butt;stroke-linejoin:miter;stroke-dasharray:none;stroke-opacity:1"
         d="m 35.796555,35.856164 c 0,0 0.987005,-0.609781 1.9031,-1.026244 1.118252,-0.508366 2.999088,-0.842934 2.999088,-0.842934"
         id="path4754"
         sodipodi:nodetypes="csc"
         transform="translate(0,-2.3872679)" />
      <path
         style="fill:none;stroke:#000000;stroke-width:0.4;stroke-linecap:butt;stroke-linejoin:miter;stroke-dasharray:none;stroke-opacity:1"
         d="m 28.108231,40.875081 c 0.400815,-1.3345 0.890054,-2.408449 1.728109,-3.420951 1.101353,-1.330607 2.073251,-2.293268 3.844162,-3.420952 0.434953,-0.27697 0.797355,0.228982 1.304899,0.775885 0.541296,0.583272 0.858674,1.106547 0.634816,1.269632 -1.046548,0.762428 -2.099793,1.790064 -2.962473,2.856671 -0.783637,0.968879 -1.974983,3.174079 -1.974983,3.174079 0,0 -1.136445,0.0044 -1.622307,-0.246873 -0.406166,-0.210061 -1.083759,-0.549547 -0.952223,-0.987491 z"
         id="path4828"
         sodipodi:nodetypes="sssssacas" />
      <path
         style="display:inline;fill:none;stroke:#000000;stroke-width:0.6;stroke-linecap:butt;stroke-linejoin:miter;stroke-dasharray:none;stroke-opacity:1"
         d="m 29.51569,40.208451 c 0,0 0.810422,-1.364632 1.404488,-2.176886 0.72516,-0.991497 2.324811,-2.5547 2.324811,-2.5547"
         id="path4832"
         sodipodi:nodetypes="csc" />
      <path
         style="fill:none;stroke:#000000;stroke-width:0.4;stroke-linecap:butt;stroke-linejoin:miter;stroke-dasharray:none;stroke-opacity:1"
         d="m 27.494687,51.114518 c -0.381573,-1.630756 -0.558059,-2.451419 -0.511772,-3.764946 0.06343,-1.799941 0.155155,-3.116389 0.699833,-5.143979 0.133779,-0.497996 0.559469,-0.421888 1.436511,-0.159263 0.827695,0.247847 1.41813,0.377319 1.300629,0.807024 -0.195289,0.714179 -0.327055,2.450301 -0.355755,3.683521 -0.02931,1.259385 0.187917,3.774505 0.187917,3.774505 0,0 -0.173254,0.60919 -0.689947,0.788721 -0.746781,0.01248 -1.564115,0.293496 -2.067416,0.01442 z"
         id="path4843"
         sodipodi:nodetypes="cssssacccc" />
      <path
         style="display:inline;fill:none;stroke:#000000;stroke-width:0.6;stroke-linecap:butt;stroke-linejoin:miter;stroke-dasharray:none;stroke-opacity:1"
         d="m 28.014289,49.659101 c 0,0 -0.123145,-1.582353 -0.105128,-2.588507 0.02199,-1.228186 0.429782,-3.427321 0.429782,-3.427321"
         id="path4845"
         sodipodi:nodetypes="csc" />
      <path
         style="display:inline;fill:#fff600;fill-opacity:1;stroke:#fff600;stroke-width:0.102;stroke-linecap:square;stroke-dasharray:none;stroke-opacity:1;paint-order:markers fill stroke"
         d="m 30.242187,41.88763 c -0.347444,-0.02302 -0.742162,-0.08743 -0.938302,-0.153114 -0.252308,-0.0845 -0.741434,-0.381635 -0.886944,-0.538803 -0.148751,-0.160668 -0.14915,-0.146399 0.01825,-0.652814 0.330624,-1.000173 0.670558,-1.711017 1.153434,-2.411972 0.350561,-0.508883 0.996545,-1.258688 1.620892,-1.881398 0.736125,-0.734195 1.425782,-1.284626 2.434457,-1.942996 0.236913,-0.154635 0.282943,-0.166603 0.407119,-0.105849 0.132285,0.06472 0.292631,0.214761 0.647524,0.605904 0.452789,0.499037 0.599963,0.68775 0.714767,0.916504 0.09242,0.184143 0.09252,0.183586 -0.0572,0.292533 -0.962432,0.700316 -2.324451,2.053742 -3.040208,3.021025 -0.413538,0.558863 -1.150905,1.755013 -1.6895,2.740694 l -0.06617,0.121093 -0.119999,-0.0028 c -0.066,-0.0015 -0.155156,-0.0051 -0.198125,-0.008 z M 29.88125,40.201934 c 0.352405,-0.588486 0.913456,-1.459307 1.197188,-1.858184 0.416761,-0.585893 1.065065,-1.315425 2.096837,-2.359553 l 0.293538,-0.297053 -0.218764,-0.218345 -0.218764,-0.218345 -0.188571,0.187273 c -0.2484,0.246691 -0.975618,1.006855 -1.218028,1.27321 -0.726754,0.798545 -1.072132,1.257689 -1.751262,2.328125 -0.445597,0.702344 -0.630964,1.017905 -0.606423,1.032348 0.01213,0.0071 0.12753,0.07621 0.256436,0.153497 0.128907,0.07728 0.241257,0.138617 0.249667,0.136299 0.0084,-0.0023 0.05708,-0.07399 0.108146,-0.159272 z"
         id="path5586" />
      <path
         style="fill:none;stroke:#000000;stroke-width:0.4;stroke-linecap:butt;stroke-linejoin:miter;stroke-dasharray:none;stroke-opacity:1"
         d="m 33.245562,59.966042 c -1.342397,-1.001466 -1.965441,-1.921391 -2.838946,-2.903473 -1.221513,-1.373348 -2.040736,-2.968686 -2.579671,-4.539879 -0.21774,-0.634789 -0.114036,-0.507121 0.797239,-1.025132 0.971867,-0.552454 1.580483,-0.516117 1.801938,0.02244 0.271638,0.660599 1.211356,2.122869 1.924092,3.112805 0.891434,1.238133 2.388056,2.860743 2.92886,3.517163 0.263479,0.319805 -0.07152,0.665938 -0.527833,1.136111 -0.749214,0.805325 -1.051832,0.736689 -1.505679,0.679967 z"
         id="path4847"
         sodipodi:nodetypes="cssssasccc" />
      <path
         style="display:inline;fill:#fff600;fill-opacity:1;stroke:#fff600;stroke-width:0.102;stroke-linecap:square;stroke-dasharray:none;stroke-opacity:1;paint-order:markers fill stroke"
         d="m 36.161148,35.178533 c -0.08648,-0.04281 -0.282977,-0.214967 -0.418961,-0.367069 -0.169144,-0.189194 -0.687276,-0.796486 -0.802752,-0.940889 -0.181996,-0.227589 -0.281983,-0.41613 -0.261181,-0.492499 0.01042,-0.03827 0.167792,-0.154865 0.598253,-0.443241 0.51972,-0.348173 0.967947,-0.600754 1.46568,-0.825927 0.3974,-0.179782 1.465884,-0.608345 1.90625,-0.764585 0.842744,-0.299003 2.015785,-0.539152 3.245738,-0.664478 0.16953,-0.01727 0.315773,-0.03141 0.324983,-0.03141 0.0092,0 -0.0082,0.04465 -0.03874,0.09922 -0.203849,0.364517 -0.224225,0.875667 -0.0528,1.324581 0.08856,0.23191 0.270164,0.491393 0.435236,0.621875 l 0.07478,0.05911 -0.150846,0.04784 c -0.08297,0.02631 -0.628971,0.199269 -1.213346,0.384345 -2.090273,0.662003 -2.449163,0.800501 -3.679687,1.420019 -0.391016,0.196859 -0.782586,0.389173 -0.870157,0.427363 -0.174231,0.07598 -0.448544,0.178147 -0.478274,0.178127 -0.01032,-7e-6 -0.04819,-0.01458 -0.08417,-0.03239 z m 0.0069,-1.571257 c 0.565448,-0.338745 1.512826,-0.831469 1.870993,-0.97309 0.581251,-0.22983 1.461022,-0.476788 2.3125,-0.649137 0.197657,-0.04001 0.370466,-0.07762 0.38402,-0.08358 0.02193,-0.0096 0.01894,-0.0425 -0.02721,-0.29847 -0.02852,-0.158196 -0.05539,-0.291165 -0.05972,-0.295487 -0.03007,-0.03007 -1.234933,0.243974 -1.843968,0.419407 -0.824421,0.237474 -1.322774,0.445174 -2.164062,0.901921 -0.323579,0.175675 -0.931184,0.525368 -0.978712,0.563275 l -0.0334,0.02664 0.158074,0.253906 c 0.08694,0.139649 0.16354,0.253906 0.170219,0.253906 0.0067,0 0.101748,-0.05368 0.211263,-0.119286 z"
         id="path5588" />
      <path
         style="display:inline;fill:none;stroke:#000000;stroke-width:0.6;stroke-linecap:butt;stroke-linejoin:miter;stroke-dasharray:none;stroke-opacity:1"
         d="m 32.829513,58.161331 c 0,0 -1.088763,-1.154817 -1.706064,-1.949556 -0.753526,-0.970115 -1.81589,-2.938331 -1.81589,-2.938331"
         id="path4849"
         sodipodi:nodetypes="csc" />
      <path
         style="display:inline;fill:#fff600;fill-opacity:1;stroke:#fff600;stroke-width:0.103;stroke-linecap:square;stroke-dasharray:none;stroke-opacity:1;paint-order:markers fill stroke"
         d="m 27.750647,50.975501 c -0.06995,-0.03539 -0.09035,-0.09684 -0.209969,-0.632351 -0.319678,-1.431169 -0.381501,-2.07128 -0.325369,-3.368879 0.07151,-1.653034 0.187172,-2.619654 0.455835,-3.809418 0.25405,-1.125049 0.270553,-1.152883 0.648615,-1.093955 0.231421,0.03607 1.236141,0.321784 1.564589,0.444924 0.09967,0.03737 0.21665,0.09842 0.25995,0.135661 l 0.07873,0.06772 -0.06358,0.312275 c -0.141414,0.694535 -0.266128,2.058438 -0.302871,3.312274 -0.02164,0.738536 0.01293,1.676135 0.113893,3.088253 l 0.06216,0.869503 -0.08444,0.155134 c -0.09696,0.178157 -0.317078,0.394022 -0.42291,0.414749 -0.03969,0.0078 -0.332316,0.04348 -0.650285,0.07934 -0.656032,0.07399 -1.011588,0.08183 -1.124353,0.02477 z m 0.483902,-1.320882 0.09392,-0.01396 -0.02012,-0.273455 c -0.01106,-0.1504 -0.03828,-0.69555 -0.06049,-1.211445 -0.04404,-1.023301 -0.02524,-1.504571 0.09639,-2.468259 0.06282,-0.497725 0.26614,-1.816309 0.299111,-1.939839 0.01599,-0.05989 -0.0058,-0.06896 -0.28529,-0.118889 -0.166428,-0.02973 -0.310121,-0.04652 -0.319318,-0.03733 -0.03677,0.03677 -0.251309,1.419613 -0.352861,2.274406 -0.110292,0.928349 -0.11265,1.90558 -0.0085,3.532369 l 0.01949,0.304471 0.22188,-0.01706 c 0.122033,-0.0094 0.264145,-0.02334 0.315803,-0.03102 z"
         id="path5584" />
      <path
         style="fill:none;stroke:#000000;stroke-width:0.4;stroke-linecap:butt;stroke-linejoin:miter;stroke-dasharray:none;stroke-opacity:1"
         d="m 43.244005,64.237461 c -1.00214,-0.03574 -2.743049,-0.57316 -4.021705,-0.877357 -1.788077,-0.425392 -3.186206,-1.278878 -4.528305,-2.257585 -0.542232,-0.395414 -0.733287,-0.430066 -0.12168,-1.281354 0.714195,-0.994079 0.999397,-1.328724 1.489523,-1.0143 0.601192,0.385677 2.230137,1.141221 3.407588,1.55758 1.285639,0.454615 3.143343,0.788246 3.962718,1.016238 0.399197,0.111076 0.604289,0.711715 0.609177,1.452278 -0.06099,0.792396 -0.424189,1.202547 -0.797316,1.4045 z"
         id="path4953"
         sodipodi:nodetypes="cssssascc" />
      <path
         style="display:inline;fill:none;stroke:#000000;stroke-width:0.6;stroke-linecap:butt;stroke-linejoin:miter;stroke-dasharray:none;stroke-opacity:1"
         d="m 40.887272,62.999981 c 0,0 -1.519242,-0.45925 -2.450325,-0.841027 -1.136552,-0.466023 -3.037963,-1.643786 -3.037963,-1.643786"
         id="path4955"
         sodipodi:nodetypes="csc" />
      <path
         style="display:inline;fill:#fff600;fill-opacity:1;stroke:#fff600;stroke-width:0.105;stroke-linecap:square;stroke-dasharray:none;stroke-opacity:1;paint-order:markers fill stroke"
         d="m 33.362111,59.76186 c -0.07685,-0.02317 -0.456072,-0.328486 -0.831856,-0.669734 -0.343543,-0.31197 -0.743729,-0.742484 -1.308515,-1.407681 -0.221856,-0.261298 -0.494656,-0.579496 -0.606224,-0.707106 -1.011826,-1.157327 -1.72746,-2.333176 -2.31987,-3.811748 -0.195188,-0.487162 -0.342831,-0.913348 -0.342831,-0.989613 0,-0.07115 0.02906,-0.09158 0.464039,-0.326135 0.852934,-0.459939 1.002888,-0.517996 1.338416,-0.518185 0.306369,-1.72e-4 0.348767,0.02881 0.500916,0.34238 0.482554,0.994524 1.566691,2.664685 2.467113,3.800699 0.28995,0.365814 0.941001,1.137675 1.537676,1.823009 0.857123,0.984482 0.895512,1.031384 0.895281,1.093806 -3.36e-4,0.09064 -0.116958,0.266938 -0.337762,0.510613 -0.45886,0.506388 -0.786685,0.780008 -1.016188,0.848163 -0.11952,0.03549 -0.341441,0.04131 -0.440195,0.01153 z m -0.514945,-1.598339 0.219401,-0.205934 -0.352692,-0.385913 C 32.063294,56.859813 31.618993,56.342723 31.317109,55.946081 30.977878,55.50037 30.381173,54.547055 29.853348,53.607533 29.716792,53.364465 29.595959,53.15585 29.58483,53.143945 c -0.01785,-0.0191 -0.40343,0.164592 -0.516646,0.246131 -0.04368,0.03146 -0.0483,0.02183 0.321231,0.670046 0.799594,1.402628 1.263712,2.097901 1.910466,2.861974 0.464087,0.548271 1.279968,1.447359 1.313413,1.447359 0.008,0 0.113202,-0.09267 0.233872,-0.205934 z"
         id="path5582" />
      <ellipse
         style="display:inline;fill:#000000;fill-opacity:1;stroke:#000000;stroke-width:0.4;stroke-linecap:square;stroke-dasharray:none;stroke-opacity:1;paint-order:markers fill stroke"
         id="path5009"
         cx="43"
         cy="65.231018"
         rx="0.93749964"
         ry="1.2968748"
         transform="translate(0,-2.3872679)" />
    </g>
    <g
       inkscape:groupmode="layer"
       id="layer1"
       inkscape:label="bintang"
       style="display:inline">
      <path
         style="display:inline;fill:#fff600;fill-opacity:1;stroke:none;stroke-width:0.0196089;stroke-linecap:square;stroke-dasharray:none;stroke-opacity:0.625;paint-order:markers fill stroke"
         d="m 41.56469,26.461307 c 0,-0.0091 0.270974,-0.847416 0.602163,-1.862908 0.33119,-1.015492 0.601437,-1.858754 0.600549,-1.873917 -0.0025,-0.04288 -1.745163,-1.375437 -2.491673,-1.905313 l -0.443426,-0.314745 1.972691,-0.0079 1.972692,-0.0079 0.179682,-0.578777 c 0.492702,-1.587049 0.978261,-3.043209 1.035816,-3.10634 0.01317,-0.01445 0.03391,0.0064 0.04608,0.04632 0.02351,0.07711 1.184954,3.105331 1.329615,3.466681 l 0.08545,0.213436 2.132283,-0.02109 c 1.265461,-0.01252 2.120089,-0.0098 2.102287,0.0067 -0.0165,0.0153 -0.763014,0.515922 -1.658924,1.112492 -0.895911,0.596571 -1.628928,1.093032 -1.628928,1.103246 0,0.01021 0.265143,0.824266 0.589207,1.809004 0.324064,0.984739 0.582319,1.797322 0.5739,1.805741 -0.0128,0.0128 -1.431673,-0.933862 -2.977269,-1.986423 -0.208029,-0.141669 -0.384113,-0.25758 -0.391298,-0.25758 -0.0072,0 -0.629055,0.405231 -1.381934,0.900513 -1.997023,1.313743 -2.248956,1.477164 -2.248956,1.458832 z"
         id="path1644" />
      <path
         style="color:#000000;display:inline;fill:#000000;fill-opacity:1;stroke:none;stroke-linecap:square;stroke-miterlimit:0;-inkscape-stroke:none;paint-order:markers fill stroke"
         d="m 43.353886,19.962995 -5.355276,0.01616 4.011421,2.943931 -1.314873,4.664188 4.513821,-2.751292 4.272649,2.768323 c 0,0 -0.87041,-3.31617 -1.346862,-4.642158 l 4.183165,-2.937235 -5.450848,-0.04313 -1.8623,-4.943371 z m 1.644797,-3.26024 c 0.428656,1.149026 1.467711,3.816338 1.467711,3.816338 l 4.330955,-0.04644 -3.385103,2.254752 1.22215,3.713732 -3.441185,-2.323052 -3.674997,2.414485 1.240656,-3.806489 c 0,0 -1.987907,-1.572643 -2.999104,-2.243656 1.283921,-0.01349 4.001768,0.0056 4.001768,0.0056 0,0 0.787977,-2.61022 1.237149,-3.785292 z"
         id="path5460-1"
         sodipodi:nodetypes="ccccccccccccccccccccccc" />
    </g>
  </g>
</svg>
